<svg xmlns="http://www.w3.org/2000/svg" width="14" height="14" viewBox="0 0 14 14" fill="none"><path d="M0.161538 7.54026C0.0538462 7.43257 0 7.27103 0 7.16334C0 7.05565 0.0538462 6.89411 0.161538 6.78642L0.915385 6.03257C1.13077 5.81719 1.45385 5.81719 1.66923 6.03257L1.72308 6.08642L4.68462 9.26334C4.79231 9.37103 4.95385 9.37103 5.06154 9.26334L12.2769 1.77873H12.3308V1.77873C12.5462 1.56334 12.8692 1.56334 13.0846 1.77873L13.8385 2.53257C14.0538 2.74796 14.0538 3.07103 13.8385 3.28642L5.22308 12.2249C5.11538 12.3326 5.00769 12.3864 4.84615 12.3864C4.68462 12.3864 4.57692 12.3326 4.46923 12.2249L0.269231 7.7018L0.161538 7.54026V7.54026Z" fill="#83B735"></path></svg>